<svg width="16" height="16" viewBox="0 0 16 16" fill="none" xmlns="http://www.w3.org/2000/svg">
<path d="M15.0312 2.87183L10.1094 7.7937L15.0312 12.7625C15.6406 13.325 15.6406 14.3093 15.0312 14.8718C14.4688 15.4812 13.4844 15.4812 12.9219 14.8718L8 9.94995L3.03125 14.8718C2.46875 15.4812 1.48438 15.4812 0.921875 14.8718C0.3125 14.3093 0.3125 13.325 0.921875 12.7625L5.84375 7.7937L0.921875 2.87183C0.3125 2.30933 0.3125 1.32495 0.921875 0.762451C1.48438 0.153076 2.46875 0.153076 3.03125 0.762451L8 5.68433L12.9219 0.762451C13.4844 0.153076 14.4688 0.153076 15.0312 0.762451C15.6406 1.32495 15.6406 2.30933 15.0312 2.87183Z" fill="#656976"/>
</svg>
