<svg width="90" height="22" viewBox="0 0 90 22" fill="none" xmlns="http://www.w3.org/2000/svg">
<path d="M14.544 21.16H6.912C4.464 21.16 2.496 19.384 2.496 16.96C2.496 14.536 4.464 12.76 6.912 12.76H14.544C16.992 12.76 18.96 14.536 18.96 16.96C18.96 19.384 16.992 21.16 14.544 21.16ZM4.032 3.208V7.48C4.032 8.104 4.368 8.44 4.992 8.44H13.512C14.088 8.44 14.544 8.896 14.544 9.496C14.544 10.096 14.088 10.552 13.512 10.552H4.416C2.592 10.552 1.536 9.496 1.536 7.672V3.208C0.96 3.208 0.504 2.752 0.504 2.152C0.504 1.552 0.96 1.096 1.536 1.096H11.88C12.456 1.096 12.912 1.552 12.912 2.152C12.912 2.752 12.456 3.208 11.88 3.208H4.032ZM14.352 14.872H7.104C5.76 14.872 4.944 15.736 4.944 16.96C4.944 18.184 5.76 19.048 7.104 19.048H14.352C15.696 19.048 16.512 18.184 16.512 16.96C16.512 15.736 15.696 14.872 14.352 14.872ZM18.72 1.432V5.2H20.52C21.096 5.2 21.552 5.704 21.552 6.304C21.552 6.904 21.096 7.408 20.52 7.408H18.72V11.272C18.72 11.92 18.168 12.424 17.472 12.424C16.776 12.424 16.224 11.92 16.224 11.272V1.432C16.224 0.783998 16.776 0.279999 17.472 0.279999C18.168 0.279999 18.72 0.783998 18.72 1.432ZM37.3534 21.16H29.7214C27.2734 21.16 25.3054 19.432 25.3054 17.056C25.3054 14.68 27.2734 12.952 29.7214 12.952H37.3534C39.8014 12.952 41.7694 14.68 41.7694 17.056C41.7694 19.432 39.8014 21.16 37.3534 21.16ZM31.5694 5.512L36.0814 9.136C36.5374 9.52 36.6574 10.24 36.2734 10.744C35.8894 11.2 35.1454 11.344 34.6654 10.936L29.7694 6.904C29.0974 6.352 28.8094 5.584 28.8094 4.648V3.208H24.8734C24.2974 3.208 23.8414 2.752 23.8414 2.152C23.8414 1.552 24.2974 1.096 24.8734 1.096H35.2414C35.8174 1.096 36.2734 1.552 36.2734 2.152C36.2734 2.752 35.8174 3.208 35.2414 3.208H31.3054V4.456C31.3054 4.864 31.3534 5.344 31.5694 5.512ZM37.1614 15.064H29.9134C28.5694 15.064 27.7534 15.88 27.7534 17.056C27.7534 18.232 28.5694 19.048 29.9134 19.048H37.1614C38.5054 19.048 39.3214 18.232 39.3214 17.056C39.3214 15.88 38.5054 15.064 37.1614 15.064ZM41.5294 1.432V5.296H43.3294C43.9054 5.296 44.3614 5.8 44.3614 6.4C44.3614 7 43.9054 7.504 43.3294 7.504H41.5294V11.464C41.5294 12.112 40.9774 12.616 40.2814 12.616C39.5854 12.616 39.0334 12.112 39.0334 11.464V1.432C39.0334 0.783998 39.5854 0.279999 40.2814 0.279999C40.9774 0.279999 41.5294 0.783998 41.5294 1.432ZM29.0494 6.808C29.4334 7.312 29.3134 8.032 28.8574 8.416L25.4494 11.176C24.9454 11.584 24.2254 11.44 23.8414 10.984C23.4574 10.48 23.5774 9.76 24.0334 9.376L27.4414 6.616C27.9454 6.232 28.6894 6.328 29.0494 6.808ZM55.7948 3.544H47.8028C47.2268 3.544 46.7708 3.04 46.7708 2.44C46.7708 1.84 47.2268 1.336 47.8028 1.336H57.0428C57.7388 1.336 58.2908 1.888 58.2908 2.584V8.584C58.2908 14.968 53.5388 19.576 47.5628 19.576H47.3228C46.7468 19.576 46.2908 19.072 46.2908 18.472C46.2908 17.872 46.7468 17.368 47.3228 17.368H47.5628C51.8588 17.368 55.7948 14.008 55.7948 8.584V3.544ZM64.3388 1.432V9.208H66.1388C66.7148 9.208 67.1708 9.712 67.1708 10.312C67.1708 10.912 66.7148 11.416 66.1388 11.416H64.3388V19.816C64.3388 20.464 63.7868 20.968 63.0908 20.968C62.3948 20.968 61.8428 20.464 61.8428 19.816V1.432C61.8428 0.783998 62.3948 0.279999 63.0908 0.279999C63.7868 0.279999 64.3388 0.783998 64.3388 1.432ZM80.8601 3.496H76.9241V8.152C76.9241 9.064 77.0201 9.64 77.3561 10.168L81.9641 17.536C82.3001 18.064 82.1561 18.856 81.5801 19.192C81.0761 19.504 80.3081 19.336 79.9481 18.76L75.2921 11.32C74.7401 10.456 74.4281 9.736 74.4281 8.392V3.496H70.4921C69.9161 3.496 69.4601 3.016 69.4601 2.416C69.4601 1.816 69.9161 1.336 70.4921 1.336H80.8601C81.4361 1.336 81.8921 1.816 81.8921 2.416C81.8921 3.016 81.4361 3.496 80.8601 3.496ZM87.1481 1.432V9.208H88.9481C89.5241 9.208 89.9801 9.712 89.9801 10.312C89.9801 10.912 89.5241 11.416 88.9481 11.416H87.1481V19.816C87.1481 20.464 86.5961 20.968 85.9001 20.968C85.2041 20.968 84.6521 20.464 84.6521 19.816V1.432C84.6521 0.783998 85.2041 0.279999 85.9001 0.279999C86.5961 0.279999 87.1481 0.783998 87.1481 1.432ZM74.5241 11.752C75.0761 12.088 75.2441 12.88 74.9321 13.36L71.4041 19C71.0441 19.576 70.2761 19.744 69.7721 19.432C69.1961 19.096 69.0521 18.304 69.3881 17.776L72.9161 12.136C73.2521 11.608 73.9721 11.416 74.5241 11.752Z" fill="#1A75FE"/>
</svg>
